# Blender v3.1.2 OBJ File: ''
# www.blender.org
mtllib Arrow.mtl
o Cube
v 0.000000 1.000000 0.000000
v 1.000000 -1.000000 -1.000000
v 1.000000 -1.000000 1.000000
v -1.000000 -1.000000 -1.000000
v -1.000000 -1.000000 1.000000
v -0.440477 -1.000000 -0.440477
v -0.440477 -1.000000 0.440477
v 0.440477 -1.000000 -0.440477
v 0.440477 -1.000000 0.440477
v -0.440477 -5.441660 -0.440477
v -0.440477 -5.441660 0.440477
v 0.440477 -5.441660 -0.440477
v 0.440477 -5.441660 0.440477
vt 0.375000 0.750000
vt 0.625000 1.000000
vt 0.375000 1.000000
vt 0.375000 0.000000
vt 0.625000 0.250000
vt 0.375000 0.250000
vt 0.375000 0.500000
vt 0.375000 0.500000
vt 0.375000 0.250000
vt 0.625000 0.750000
vt 0.625000 0.500000
vt 0.375000 0.750000
vt 0.375000 0.750000
vt 0.375000 0.500000
vt 0.375000 0.000000
vt 0.375000 1.000000
vt 0.125000 0.500000
vt 0.125000 0.750000
vt 0.375000 0.250000
vt 0.375000 1.000000
vt 0.375000 0.000000
vn 0.0000 0.4472 0.8944
vn -0.8944 0.4472 0.0000
vn 0.0000 -1.0000 -0.0000
vn 0.8944 0.4472 0.0000
vn 0.0000 0.4472 -0.8944
vn 1.0000 0.0000 0.0000
vn 0.0000 0.0000 -1.0000
vn 0.0000 0.0000 1.0000
vn -1.0000 0.0000 0.0000
usemtl Material
s off
f 3/1/1 1/2/1 5/3/1
f 5/4/2 1/5/2 4/6/2
f 4/6/3 2/7/3 8/8/3 6/9/3
f 2/7/4 1/10/4 3/1/4
f 4/6/5 1/11/5 2/7/5
f 8/8/6 9/12/6 13/13/6 12/14/6
f 2/7/3 3/1/3 9/12/3 8/8/3
f 5/4/3 4/6/3 6/9/3 7/15/3
f 3/1/3 5/3/3 7/16/3 9/12/3
f 10/17/3 12/14/3 13/13/3 11/18/3
f 6/9/7 8/8/7 12/14/7 10/19/7
f 9/12/8 7/16/8 11/20/8 13/13/8
f 7/15/9 6/9/9 10/19/9 11/21/9
